<svg width="235" height="258" viewBox="0 0 235 258" fill="none" xmlns="http://www.w3.org/2000/svg">
  <g clip-path="url(#clip0_8_187)">
    <path
      d="M163.182 52.3426C146.892 49.743 128.341 48.3558 109.021 48.3558C91.3399 48.3558 74.3054 49.5159 59.06 51.7032C59.0636 51.469 59.067 51.2349 59.0774 51.0008C59.4816 37.4123 65.1852 24.5208 74.9693 15.0818C84.7534 5.64277 97.8416 0.405044 111.437 0.488094C125.032 0.571145 138.055 5.96838 147.723 15.5262C157.391 25.0841 162.937 38.0443 163.175 51.6368C163.179 51.8744 163.182 52.1085 163.182 52.3426Z"
      fill="#6956EA" />
    <g opacity="0.1">
      <path
        d="M117.949 0.468669C110.718 -0.507944 103.363 0.0455717 96.3598 2.09334C89.3567 4.14111 82.8621 7.63743 77.2968 12.3557C71.7315 17.074 67.2198 22.9089 64.054 29.4824C60.8883 36.0558 59.1391 43.2211 58.9199 50.5138C58.9093 50.7479 58.9059 50.982 58.9025 51.2161C63.4317 50.5662 68.122 50.0094 72.9372 49.5444C73.5261 37.3951 78.3501 25.8354 86.5721 16.8711C94.794 7.90679 105.895 2.10365 117.949 0.468669Z"
        fill="white" />
    </g>
    <path
      d="M185.958 56.4725C178.459 54.4398 170.853 52.8254 163.175 51.6367C150.591 49.6867 137.904 48.4676 125.178 47.9854C119.878 47.7688 114.479 47.657 109.021 47.657C104.695 47.657 100.404 47.7269 96.1725 47.8666C83.7595 48.2333 71.3759 49.2796 59.0774 51.0008C49.9734 52.2543 40.9577 54.0819 32.0842 56.4725C11.3947 62.1923 1.14441e-05 69.8583 1.14441e-05 78.0554C1.14441e-05 86.2525 11.3947 93.9185 32.0842 99.6383C46.6344 103.663 64.5739 106.406 84.1209 107.664C92.1891 108.188 100.53 108.454 109.021 108.454C117.54 108.454 125.909 108.185 134.001 107.661C151.791 106.511 168.249 104.132 182.023 100.672C182.096 100.652 182.166 100.634 182.24 100.617C183.169 100.386 184.085 100.145 184.99 99.9038C185.315 99.813 185.636 99.7256 185.958 99.6383C185.976 99.6309 185.994 99.625 186.013 99.6208C186.321 99.5369 186.625 99.4496 186.929 99.3657C187.537 99.191 188.138 99.0198 188.728 98.8416C188.756 98.8346 188.781 98.8276 188.805 98.8206C189.319 98.6669 189.822 98.5132 190.322 98.3594C190.731 98.2301 191.136 98.1044 191.538 97.9751C191.831 97.8807 192.122 97.7864 192.408 97.6921C192.618 97.6222 192.824 97.5558 193.027 97.4859C193.303 97.3951 193.579 97.3007 193.851 97.2064C193.966 97.1679 194.082 97.1295 194.194 97.0876C194.456 97.0002 194.711 96.9094 194.966 96.8185C195.242 96.7207 195.518 96.6194 195.79 96.5215C196.018 96.4412 196.245 96.3573 196.468 96.2735C196.657 96.2001 196.842 96.1302 197.031 96.0603C197.544 95.8681 198.048 95.669 198.544 95.4733C198.792 95.372 199.04 95.2742 199.285 95.1728C199.526 95.075 199.77 94.9737 200.008 94.8723C200.399 94.7081 200.784 94.5439 201.161 94.3797C201.343 94.2958 201.528 94.2155 201.706 94.1386C201.843 94.0757 201.975 94.0163 202.112 93.9534C202.209 93.9115 202.307 93.8661 202.402 93.8206C202.754 93.6599 203.104 93.4957 203.446 93.3315C204.76 92.7025 205.987 92.0596 207.126 91.4028C214.272 87.3112 218.042 82.7724 218.042 78.0554C218.042 69.8583 206.647 62.1923 185.958 56.4725ZM185.769 98.9674C171.201 102.996 153.213 105.739 133.614 106.986C125.643 107.493 117.404 107.755 109.021 107.755C100.666 107.755 92.4546 107.496 84.5087 106.99C64.8779 105.746 46.8615 103.003 32.273 98.9674C11.9119 93.3349 0.698864 85.91 0.698864 78.0554C0.700001 77.3613 0.786877 76.6701 0.957521 75.9974C2.73946 68.9114 13.701 62.2797 32.273 57.1434C41.0794 54.7714 50.026 52.9544 59.06 51.7031C71.4326 49.9722 83.8909 48.9224 96.3787 48.5584C100.544 48.4222 104.758 48.3546 109.021 48.3558C114.406 48.3558 119.731 48.4641 124.965 48.6738C137.765 49.1516 150.525 50.3766 163.182 52.3425C170.794 53.5259 178.334 55.1286 185.769 57.1434C204.337 62.2797 215.295 68.9079 217.081 75.9904C217.254 76.665 217.342 77.3588 217.343 78.0554C217.343 85.91 206.13 93.3349 185.769 98.9674Z"
      fill="#7F7F7F" />
    <path
      d="M217.843 78.3734C217.843 83.0415 213.995 87.4579 207.126 91.4027C205.983 92.0596 204.753 92.7025 203.446 93.3315C203.104 93.4957 202.754 93.6599 202.402 93.8206C202.307 93.8661 202.209 93.9115 202.112 93.9534C201.975 94.0163 201.842 94.0757 201.706 94.1386C201.528 94.2155 201.343 94.2958 201.161 94.3797C200.784 94.5439 200.399 94.7081 200.008 94.8723C199.77 94.9737 199.526 95.075 199.285 95.1728C199.04 95.2742 198.792 95.372 198.544 95.4733C198.048 95.669 197.544 95.8681 197.031 96.0603C196.842 96.1302 196.657 96.2001 196.468 96.2735C196.245 96.3573 196.018 96.4412 195.79 96.5215C195.518 96.6194 195.242 96.7207 194.966 96.8185C194.711 96.9094 194.456 97.0002 194.193 97.0876C194.082 97.1295 193.966 97.1679 193.851 97.2064C193.579 97.3007 193.303 97.3951 193.026 97.4859C192.824 97.5558 192.618 97.6222 192.408 97.6921C192.121 97.7864 191.831 97.8807 191.538 97.9751C191.136 98.1044 190.731 98.2301 190.322 98.3594C189.822 98.5132 189.319 98.6669 188.805 98.8206C188.781 98.8276 188.756 98.8346 188.728 98.8416C188.138 99.0198 187.537 99.191 186.929 99.3657C186.625 99.4496 186.321 99.5369 186.013 99.6208C185.994 99.625 185.976 99.6308 185.958 99.6383C185.636 99.7256 185.315 99.8129 184.99 99.9038C184.088 100.141 183.169 100.382 182.24 100.617C182.166 100.634 182.096 100.652 182.023 100.672C168.622 104.02 152.182 106.459 133.987 107.636C126.017 108.15 117.708 108.422 109.171 108.422C100.558 108.422 92.1785 108.146 84.1453 107.622C36.19 104.495 0.499731 92.5872 0.499731 78.3733C0.503507 77.5085 0.635346 76.6489 0.890959 75.8227C0.911945 75.8821 0.932928 75.938 0.9575 75.9974C5.94364 89.0931 41.3302 99.6767 87.2447 102.259C94.2787 102.657 101.564 102.863 109.021 102.863C116.509 102.863 123.823 102.654 130.884 102.255C176.761 99.6627 212.112 89.0757 217.081 75.9904C217.165 75.7807 217.238 75.5711 217.301 75.3615C217.655 76.3263 217.839 77.3455 217.843 78.3734Z"
      fill="#7F7F7F" />
    <path
      d="M32.0316 74.6124C26.2163 74.6124 20.0356 73.3613 20.0356 71.0425C20.0356 68.7238 26.2163 67.4727 32.0316 67.4727C37.847 67.4727 44.0277 68.7238 44.0277 71.0425C44.0277 73.3613 37.847 74.6124 32.0316 74.6124ZM32.0316 68.1715C25.374 68.1715 20.7345 69.6847 20.7345 71.0425C20.7345 72.4004 25.374 73.9135 32.0316 73.9135C38.6893 73.9135 43.3288 72.4004 43.3288 71.0425C43.3288 69.6847 38.6893 68.1715 32.0316 68.1715Z"
      fill="#7F7F7F" />
    <path
      d="M56.8408 91.0345C51.0255 91.0345 44.8449 89.7834 44.8449 87.4647C44.8449 85.1459 51.0255 83.8948 56.8408 83.8948C62.6563 83.8948 68.8369 85.1459 68.8369 87.4647C68.8369 89.7834 62.6563 91.0345 56.8408 91.0345ZM56.8408 84.5937C50.1833 84.5937 45.5437 86.1068 45.5437 87.4647C45.5437 88.8225 50.1833 90.3357 56.8408 90.3357C63.4984 90.3357 68.1381 88.8225 68.1381 87.4647C68.1381 86.1068 63.4985 84.5937 56.8408 84.5937Z"
      fill="#7F7F7F" />
    <path
      d="M185.779 74.6124C179.964 74.6124 173.783 73.3613 173.783 71.0425C173.783 68.7238 179.964 67.4727 185.779 67.4727C191.594 67.4727 197.775 68.7238 197.775 71.0425C197.775 73.3613 191.594 74.6124 185.779 74.6124ZM185.779 68.1715C179.121 68.1715 174.482 69.6847 174.482 71.0425C174.482 72.4004 179.121 73.9135 185.779 73.9135C192.437 73.9135 197.076 72.4004 197.076 71.0425C197.076 69.6847 192.437 68.1715 185.779 68.1715Z"
      fill="#7F7F7F" />
    <path
      d="M160.97 91.0345C155.154 91.0345 148.974 89.7834 148.974 87.4647C148.974 85.1459 155.154 83.8948 160.97 83.8948C166.785 83.8948 172.966 85.1459 172.966 87.4647C172.966 89.7834 166.785 91.0345 160.97 91.0345ZM160.97 84.5937C154.312 84.5937 149.673 86.1068 149.673 87.4647C149.673 88.8225 154.312 90.3357 160.97 90.3357C167.627 90.3357 172.267 88.8225 172.267 87.4647C172.267 86.1068 167.627 84.5937 160.97 84.5937Z"
      fill="#7F7F7F" />
    <path
      d="M108.905 98.7214C103.09 98.7214 96.9093 97.4704 96.9093 95.1516C96.9093 92.8329 103.09 91.5818 108.905 91.5818C114.721 91.5818 120.901 92.8329 120.901 95.1516C120.901 97.4704 114.721 98.7214 108.905 98.7214ZM108.905 92.2806C102.248 92.2806 97.6082 93.7937 97.6082 95.1516C97.6082 96.5095 102.248 98.0226 108.905 98.0226C115.563 98.0226 120.203 96.5095 120.203 95.1516C120.203 93.7937 115.563 92.2806 108.905 92.2806Z"
      fill="#7F7F7F" />
    <path
      d="M117.749 172.159C125.856 172.159 132.429 165.586 132.429 157.479C132.429 149.372 125.856 142.8 117.749 142.8C109.641 142.8 103.069 149.372 103.069 157.479C103.069 165.586 109.641 172.159 117.749 172.159Z"
      fill="#7F7F7F" />
    <path d="M112.166 167.124L105.022 170.701L107.019 174.689L114.163 171.111L112.166 167.124Z" fill="#7F7F7F" />
    <path
      d="M107.961 174.284C108.384 173.642 107.339 172.205 105.625 171.075C103.911 169.945 102.179 169.55 101.755 170.193C101.331 170.835 102.377 172.272 104.091 173.402C105.804 174.532 107.537 174.927 107.961 174.284Z"
      fill="#7F7F7F" />
    <path d="M123.331 167.124L121.334 171.111L128.479 174.689L130.476 170.701L123.331 167.124Z" fill="#7F7F7F" />
    <path
      d="M131.407 173.402C133.121 172.272 134.166 170.835 133.743 170.193C133.319 169.55 131.586 169.945 129.873 171.075C128.159 172.205 127.113 173.642 127.537 174.284C127.961 174.927 129.693 174.532 131.407 173.402Z"
      fill="#7F7F7F" />
    <path
      d="M116.721 158.906C119.492 158.906 121.738 156.659 121.738 153.889C121.738 151.118 119.492 148.872 116.721 148.872C113.95 148.872 111.704 151.118 111.704 153.889C111.704 156.659 113.95 158.906 116.721 158.906Z"
      fill="white" />
    <path
      d="M117.942 152.927C118.592 152.276 118.588 151.218 117.933 150.563C117.278 149.908 116.22 149.905 115.57 150.555C114.919 151.205 114.923 152.263 115.578 152.918C116.233 153.573 117.291 153.577 117.942 152.927Z"
      fill="#7F7F7F" />
    <path
      d="M129.329 141.51C129.55 136.075 124.866 131.472 118.867 131.228C112.869 130.985 107.827 135.193 107.606 140.627C107.385 146.062 111.555 147.297 117.554 147.54C123.553 147.784 129.109 146.944 129.329 141.51Z"
      fill="#6956EA" />
    <path
      d="M137.791 165.166C138.757 164.337 137.399 161.172 134.759 158.096C132.118 155.02 129.195 153.199 128.229 154.028C127.264 154.857 128.621 158.022 131.262 161.098C133.903 164.173 136.826 165.995 137.791 165.166Z"
      fill="#7F7F7F" />
    <path
      d="M104.277 161.098C106.917 158.022 108.275 154.857 107.31 154.028C106.344 153.199 103.421 155.02 100.78 158.096C98.1394 161.172 96.7816 164.337 97.7472 165.166C98.7128 165.995 101.636 164.173 104.277 161.098Z"
      fill="#7F7F7F" />
    <path
      d="M121.781 163.264C121.94 164.137 121.745 165.037 121.241 165.766C120.736 166.496 119.962 166.995 119.089 167.154C118.216 167.313 117.316 167.118 116.587 166.614C115.857 166.109 115.358 165.335 115.199 164.462L115.198 164.456C114.869 162.638 116.274 161.995 118.092 161.666C119.91 161.337 121.452 161.447 121.781 163.264Z"
      fill="white" />
    <path
      d="M92.9473 173.094C92.762 173.094 92.5842 173.02 92.4532 172.889C92.3221 172.758 92.2485 172.581 92.2485 172.395V131.165C92.2485 130.98 92.3221 130.802 92.4532 130.671C92.5842 130.54 92.762 130.466 92.9473 130.466C93.1327 130.466 93.3104 130.54 93.4415 130.671C93.5725 130.802 93.6462 130.98 93.6462 131.165V172.395C93.6462 172.581 93.5725 172.758 93.4415 172.889C93.3104 173.02 93.1327 173.094 92.9473 173.094Z"
      fill="#CCCCCC" />
    <path
      d="M82.4645 210.131C82.2792 210.131 82.1014 210.058 81.9704 209.927C81.8393 209.796 81.7657 209.618 81.7657 209.432V179.383C81.7657 179.198 81.8393 179.02 81.9704 178.889C82.1014 178.758 82.2792 178.685 82.4645 178.685C82.6499 178.685 82.8276 178.758 82.9587 178.889C83.0898 179.02 83.1634 179.198 83.1634 179.383V209.432C83.1634 209.618 83.0897 209.796 82.9587 209.927C82.8276 210.058 82.6499 210.131 82.4645 210.131Z"
      fill="#CCCCCC" />
    <path
      d="M109.37 185.323C109.185 185.323 109.007 185.25 108.876 185.119C108.745 184.988 108.671 184.81 108.671 184.625V143.394C108.671 143.209 108.745 143.031 108.876 142.9C109.007 142.769 109.185 142.696 109.37 142.696C109.556 142.696 109.733 142.769 109.864 142.9C109.996 143.031 110.069 143.209 110.069 143.394V184.625C110.069 184.81 109.996 184.988 109.864 185.119C109.733 185.25 109.556 185.323 109.37 185.323Z"
      fill="#CCCCCC" />
    <path
      d="M99.237 215.023C99.0516 215.023 98.8739 214.949 98.7428 214.818C98.6118 214.687 98.5381 214.509 98.5381 214.324V197.553C98.5381 197.367 98.6118 197.189 98.7428 197.058C98.8739 196.927 99.0516 196.854 99.237 196.854C99.4223 196.854 99.6001 196.927 99.7311 197.058C99.8622 197.189 99.9358 197.367 99.9358 197.553V214.324C99.9358 214.509 99.8622 214.687 99.7311 214.818C99.6001 214.949 99.4223 215.023 99.237 215.023Z"
      fill="#CCCCCC" />
    <path
      d="M113.563 129.069C113.378 129.069 113.2 128.995 113.069 128.864C112.938 128.733 112.865 128.555 112.865 128.37V111.598C112.865 111.413 112.938 111.235 113.069 111.104C113.2 110.973 113.378 110.9 113.563 110.9C113.749 110.9 113.927 110.973 114.058 111.104C114.189 111.235 114.262 111.413 114.262 111.598V128.37C114.262 128.555 114.189 128.733 114.058 128.864C113.927 128.995 113.749 129.069 113.563 129.069Z"
      fill="#CCCCCC" />
    <path
      d="M78.6209 136.406C78.4355 136.406 78.2578 136.333 78.1267 136.202C77.9956 136.071 77.922 135.893 77.922 135.708V118.936C77.922 118.751 77.9956 118.573 78.1267 118.442C78.2578 118.311 78.4355 118.237 78.6209 118.237C78.8062 118.237 78.984 118.311 79.115 118.442C79.2461 118.573 79.3197 118.751 79.3197 118.936V135.708C79.3197 135.893 79.2461 136.071 79.115 136.202C78.984 136.333 78.8062 136.406 78.6209 136.406Z"
      fill="#CCCCCC" />
    <path
      d="M139.421 138.153C139.236 138.153 139.058 138.08 138.927 137.949C138.796 137.818 138.722 137.64 138.722 137.455V120.683C138.722 120.498 138.796 120.32 138.927 120.189C139.058 120.058 139.236 119.984 139.421 119.984C139.606 119.984 139.784 120.058 139.915 120.189C140.046 120.32 140.12 120.498 140.12 120.683V137.455C140.12 137.64 140.046 137.818 139.915 137.949C139.784 138.08 139.606 138.153 139.421 138.153Z"
      fill="#CCCCCC" />
    <path
      d="M138.023 190.564C137.838 190.564 137.66 190.491 137.529 190.36C137.398 190.229 137.324 190.051 137.324 189.866V169.6C137.324 169.415 137.398 169.237 137.529 169.106C137.66 168.975 137.838 168.901 138.023 168.901C138.209 168.901 138.386 168.975 138.517 169.106C138.648 169.237 138.722 169.415 138.722 169.6V189.866C138.722 190.051 138.648 190.229 138.517 190.36C138.386 190.491 138.209 190.564 138.023 190.564Z"
      fill="#CCCCCC" />
    <path
      d="M124.046 208.384C123.861 208.384 123.683 208.311 123.552 208.18C123.421 208.049 123.347 207.871 123.347 207.685V177.636C123.347 177.451 123.421 177.273 123.552 177.142C123.683 177.011 123.861 176.938 124.046 176.938C124.232 176.938 124.409 177.011 124.54 177.142C124.671 177.273 124.745 177.451 124.745 177.636V207.685C124.745 207.871 124.671 208.049 124.54 208.18C124.409 208.311 124.232 208.384 124.046 208.384Z"
      fill="#CCCCCC" />
    <path
      d="M126.842 157.021C126.656 157.021 126.479 156.948 126.347 156.817C126.216 156.686 126.143 156.508 126.143 156.323V115.093C126.143 114.907 126.216 114.729 126.347 114.598C126.479 114.467 126.656 114.394 126.842 114.394C127.027 114.394 127.205 114.467 127.336 114.598C127.467 114.729 127.54 114.907 127.54 115.093V156.323C127.54 156.508 127.467 156.686 127.336 156.817C127.205 156.948 127.027 157.021 126.842 157.021Z"
      fill="#CCCCCC" />
    <path
      d="M212.519 244.756C213.519 243.919 212.167 240.657 209.499 237.471C206.832 234.285 203.858 232.381 202.858 233.219C201.857 234.056 203.209 237.318 205.877 240.504C208.545 243.69 211.518 245.594 212.519 244.756Z"
      fill="#7F7F7F" />
    <path
      d="M205.959 241.133C208.587 233.249 204.326 224.727 196.441 222.099C188.556 219.471 180.034 223.732 177.405 231.616C174.777 239.5 179.038 248.022 186.923 250.65C194.808 253.279 203.33 249.018 205.959 241.133Z"
      fill="#7F7F7F" />
    <path d="M198.052 248.184H193.48V256.375H198.052V248.184Z" fill="#7F7F7F" />
    <path d="M188.908 248.184H184.336V256.375H188.908V248.184Z" fill="#7F7F7F" />
    <path
      d="M194.242 257.899C196.346 257.899 198.052 257.259 198.052 256.47C198.052 255.681 196.346 255.042 194.242 255.042C192.138 255.042 190.432 255.681 190.432 256.47C190.432 257.259 192.138 257.899 194.242 257.899Z"
      fill="#7F7F7F" />
    <path
      d="M185.098 257.709C187.202 257.709 188.908 257.069 188.908 256.28C188.908 255.491 187.202 254.851 185.098 254.851C182.994 254.851 181.288 255.491 181.288 256.28C181.288 257.069 182.994 257.709 185.098 257.709Z"
      fill="#7F7F7F" />
    <path
      d="M186.957 217.459C188.3 212.048 194.232 208.863 200.205 210.346C206.178 211.829 209.931 217.418 208.587 222.83C207.244 228.241 202.786 228.258 196.812 226.775C190.839 225.292 185.613 222.87 186.957 217.459Z"
      fill="#CCCCCC" />
    <path
      d="M181.53 232.617C182.089 231.438 179.499 229.039 175.744 227.258C171.989 225.477 168.492 224.989 167.933 226.168C167.374 227.347 169.965 229.746 173.72 231.526C177.474 233.307 180.971 233.795 181.53 232.617Z"
      fill="#7F7F7F" />
    <path
      d="M189.432 238.216C192.203 238.216 194.449 235.97 194.449 233.199C194.449 230.429 192.203 228.182 189.432 228.182C186.661 228.182 184.415 230.429 184.415 233.199C184.415 235.97 186.661 238.216 189.432 238.216Z"
      fill="white" />
    <path
      d="M187.37 233.073C188.294 233.073 189.042 232.325 189.042 231.401C189.042 230.477 188.294 229.729 187.37 229.729C186.446 229.729 185.698 230.477 185.698 231.401C185.698 232.325 186.446 233.073 187.37 233.073Z"
      fill="#7F7F7F" />
    <path
      d="M189.389 245.771C190.547 245.771 191.485 244.832 191.485 243.674C191.485 242.516 190.547 241.578 189.389 241.578C188.231 241.578 187.292 242.516 187.292 243.674C187.292 244.832 188.231 245.771 189.389 245.771Z"
      fill="white" />
    <path
      d="M234.651 258H152.186C152.093 258 152.004 257.963 151.939 257.898C151.873 257.832 151.837 257.743 151.837 257.651C151.837 257.558 151.873 257.469 151.939 257.403C152.004 257.338 152.093 257.301 152.186 257.301H234.651C234.743 257.301 234.832 257.338 234.898 257.403C234.963 257.469 235 257.558 235 257.651C235 257.743 234.963 257.832 234.898 257.898C234.832 257.963 234.743 258 234.651 258Z"
      fill="#7F7F7F" />
  </g>
  <defs>
    <clipPath id="clip0_8_187">
      <rect width="235" height="258" fill="white" />
    </clipPath>
  </defs>
</svg>